<?xml version="1.0" standalone="no"?>
<!DOCTYPE svg PUBLIC "-//W3C//DTD SVG 20010904//EN"
 "http://www.w3.org/TR/2001/REC-SVG-20010904/DTD/svg10.dtd">
<svg version="1.0" xmlns="http://www.w3.org/2000/svg"
 width="700.000000pt" height="700.000000pt" viewBox="0 0 700.000000 700.000000"
 preserveAspectRatio="xMidYMid meet">
<metadata>
Created by potrace 1.11, written by Peter Selinger 2001-2013
</metadata>
<g transform="translate(0.000000,700.000000) scale(0.100000,-0.100000)"
fill="#000000" stroke="none">
<path d="M940 6989 c-175 -15 -338 -73 -488 -173 -80 -53 -207 -179 -264 -261
-58 -85 -123 -225 -150 -325 l-23 -85 0 -2640 0 -2640 23 -85 c12 -47 47 -134
76 -195 158 -320 450 -524 811 -566 60 -7 927 -9 2635 -7 2347 3 2550 5 2613
20 219 54 373 141 522 293 139 142 230 310 272 505 17 81 18 204 18 2675 0
2387 -1 2596 -17 2665 -52 233 -172 437 -339 579 -129 108 -283 185 -454 224
-90 21 -93 21 -2615 23 -1389 1 -2568 -2 -2620 -7z m4500 -1544 l-775 -775
-1167 0 -1168 0 0 -1165 0 -1165 1167 0 1168 0 775 -775 775 -775 -2717 0
-2718 0 0 2715 0 2715 2717 0 2718 0 -775 -775z"/>
</g>
</svg>
